<?xml version="1.0" encoding="UTF-8" standalone="no"?>
<!DOCTYPE svg PUBLIC "-//W3C//DTD SVG 1.1//EN" "http://www.w3.org/Graphics/SVG/1.1/DTD/svg11.dtd">
<svg version="1.1" xmlns="http://www.w3.org/2000/svg" xmlns:xlink="http://www.w3.org/1999/xlink" preserveAspectRatio="xMidYMid meet" viewBox="0 0 400 200" width="400" height="200"><defs><path d="M269.42 55.34L269.42 132.87L310 132.87L310 143.96L257 143.96L257 55.34L269.42 55.34Z" id="bdtsqh2hr"></path><path d="M379.22 143.96L379.22 141.96L377.94 142.81L332.42 76.3L331.74 144.96L320 144.96L320.84 55.64L332.62 55.64L332.58 59.87L334.48 58.61L379.22 124.04L379.22 54.64L391 54.64L391 143.96L379.22 143.96Z" id="bwcE2QTL7"></path><path d="M55.96 59.9L71.8 59.87L40.38 90.76L75.46 139.65L59.8 139.45L31.35 99.64L18.46 112.31L18.46 145.46L7 145.46L7.2 54.84L18.46 54.84L18.46 96.94L55.96 59.9Z" id="aq1dqRLMs"></path><path d="M5 190L5 183.29L395 183.29L395 189.04L5 190ZM5 146.2L5 139.48L395 139.48L395 145.23L5 146.2ZM5 103.4L5 96.68L395 96.68L395 102.43L5 103.4ZM5 60.94L5 54.22L395 54.22L395 59.98L5 60.94ZM5 16.72L5 10L395 10L395 15.75L5 16.72Z" id="b5vrv5350"></path><path d="M146.5 10.01L146.86 10.01L147.21 10.01L147.57 10.02L147.93 10.03L148.29 10.03L148.64 10.04L149 10.05L149.36 10.07L149.72 10.08L150.08 10.09L150.44 10.11L150.8 10.12L151.16 10.14L151.52 10.16L151.88 10.18L152.25 10.2L152.61 10.22L152.97 10.25L153.33 10.27L153.7 10.3L154.06 10.33L154.42 10.36L154.79 10.39L155.15 10.42L155.52 10.45L155.88 10.48L156.25 10.52L156.62 10.55L156.98 10.59L157.35 10.63L157.72 10.67L158.08 10.71L158.45 10.75L158.82 10.79L159.19 10.84L159.56 10.88L159.93 10.93L160.3 10.98L165.74 13.04L171.49 16.57L176.03 19.8L179.66 22.75L183.29 26.28L186.32 30.69L190.86 39.22L192.98 43.63L194.49 48.93L196 57.75L196 74.52L194.49 81.87L192.98 88.93L190.86 95.11L185.98 106.6L185.41 107.76L181.48 115.11L178.15 120.11L175.12 125.41L170.58 130.41L166.95 134.53L163.02 138.35L159.39 142.18L155.15 145.41L149.71 149.53L142.44 154.51L122.17 163.06L108.86 167.18L98.26 169.83L91 171L94.55 168.53L104.44 163.94L113.94 158.91L122.54 153.28L131.85 145.64L141.37 136.28L147.37 129.65L151.78 124.83L153.6 122.01L157.79 115.11L163.02 105.26L166.95 96.58L169.2 87.47L170.9 80.88L172.14 71.73L172.64 63.8L172.64 55.28L171.49 48.13L169.72 41.57L166.95 35.51L163.68 28.65L160.76 24.44L156.63 20.33L151.19 17.49L147.37 15.93L142.74 15.39L138.81 15.39L136.03 15.63L131.49 16.92L125.8 19.39L121.2 21.92L117.45 25.39L113.94 29.22L111.46 33.51L109.64 36.87L108.86 40.1L110.07 41.57L113.7 40.1L118.24 39.22L126.1 39.22L131.85 41.57L137 46.87L139.72 51.87L139.72 63.1L139.52 65.95L139.32 67.76L138.81 69.52L137.37 71.73L135.48 73.34L130.64 76.58L126.1 78.64L117.03 78.64L112.18 77.46L106.74 73.34L102.8 68.64L100.38 61.58L99.47 53.05L99.47 46.02L101.15 39.75L101.16 39.73L101.16 39.7L101.17 39.67L101.18 39.65L101.19 39.62L101.19 39.59L101.2 39.57L101.21 39.54L101.22 39.51L101.23 39.49L101.23 39.46L101.24 39.44L101.25 39.41L101.26 39.38L101.27 39.36L101.28 39.33L101.29 39.31L101.3 39.28L101.31 39.26L101.32 39.23L101.33 39.2L101.34 39.18L101.35 39.15L101.36 39.13L101.37 39.1L101.38 39.08L101.39 39.05L101.4 39.03L101.41 39L101.42 38.98L101.43 38.95L101.45 38.93L101.46 38.9L101.47 38.88L101.48 38.85L101.49 38.83L101.51 38.8L101.52 38.78L101.53 38.75L101.54 38.73L104.01 33.92L107.95 27.75L112.18 22.75L117.03 18.92L122.17 15.39L126.1 13.04L131.85 10.98L132.19 10.93L132.54 10.88L132.88 10.84L133.22 10.79L133.56 10.75L133.91 10.71L134.25 10.67L134.59 10.63L134.94 10.59L135.28 10.55L135.63 10.52L135.97 10.48L136.32 10.45L136.66 10.42L137.01 10.39L137.36 10.36L137.71 10.33L138.05 10.3L138.4 10.27L138.75 10.25L139.1 10.22L139.45 10.2L139.8 10.18L140.15 10.16L140.5 10.14L140.85 10.12L141.2 10.11L141.55 10.09L141.9 10.08L142.25 10.07L142.6 10.05L142.96 10.04L143.31 10.03L143.66 10.03L144.01 10.02L144.37 10.01L144.72 10.01L145.08 10.01L145.43 10L145.79 10L146.14 10L146.5 10.01ZM223.71 65.83L224.97 66.18L226.19 66.66L227.33 67.25L228.41 67.96L229.4 68.77L230.3 69.67L231.11 70.66L231.82 71.74L232.41 72.88L232.89 74.1L233.24 75.36L233.45 76.68L233.53 78.04L233.45 79.41L233.24 80.72L232.89 81.99L232.41 83.21L231.82 84.35L231.11 85.43L230.3 86.42L229.4 87.32L228.41 88.13L227.33 88.84L226.19 89.43L224.97 89.91L223.71 90.26L222.39 90.47L221.03 90.54L219.66 90.47L218.35 90.26L217.08 89.91L215.86 89.43L214.72 88.84L213.64 88.13L212.65 87.32L211.75 86.42L210.94 85.43L210.23 84.35L209.64 83.21L209.16 81.99L208.81 80.72L208.6 79.41L208.53 78.04L208.6 76.68L208.81 75.36L209.16 74.1L209.64 72.88L210.23 71.74L210.94 70.66L211.75 69.67L212.65 68.77L213.64 67.96L214.72 67.25L215.86 66.66L217.08 66.18L218.35 65.83L219.66 65.62L221.03 65.54L222.39 65.62L223.71 65.83ZM223.71 21.93L224.97 22.28L226.19 22.75L227.33 23.35L228.41 24.05L229.4 24.86L230.3 25.76L231.11 26.76L231.82 27.83L232.41 28.98L232.89 30.19L233.24 31.46L233.45 32.78L233.53 34.14L233.45 35.5L233.24 36.82L232.89 38.09L232.41 39.3L231.82 40.44L231.11 41.52L230.3 42.51L229.4 43.42L228.41 44.22L227.33 44.93L226.19 45.52L224.97 46L223.71 46.35L222.39 46.56L221.03 46.64L219.66 46.56L218.35 46.35L217.08 46L215.86 45.52L214.72 44.93L213.64 44.22L212.65 43.42L211.75 42.51L210.94 41.52L210.23 40.44L209.64 39.3L209.16 38.09L208.81 36.82L208.6 35.5L208.53 34.14L208.6 32.78L208.81 31.46L209.16 30.19L209.64 28.98L210.23 27.83L210.94 26.76L211.75 25.76L212.65 24.86L213.64 24.05L214.72 23.35L215.86 22.75L217.08 22.28L218.35 21.93L219.66 21.71L221.03 21.64L222.39 21.71L223.71 21.93Z" id="b1cnEBJkgb"></path></defs><g><g><g><use xlink:href="#bdtsqh2hr" opacity="1" fill="#000000" fill-opacity="1"></use></g><g><use xlink:href="#bwcE2QTL7" opacity="1" fill="#000000" fill-opacity="1"></use></g><g><use xlink:href="#aq1dqRLMs" opacity="1" fill="#000000" fill-opacity="1"></use></g><g><use xlink:href="#b5vrv5350" opacity="1" fill="#000000" fill-opacity="1"></use></g><g><use xlink:href="#b1cnEBJkgb" opacity="1" fill="#000000" fill-opacity="1"></use></g></g></g></svg>