<svg xmlns="http://www.w3.org/2000/svg" viewBox="0 0 400 400" width="512" height="512"><path d="M248.594 168.738v54.271H277v7.763h-37.1v-62.034h8.694zM325.454 230.772v-1.4l-.896.595-31.864-46.557-.476 48.062H284l.588-62.524h8.246l-.028 2.961 1.33-.882 31.318 45.801v-48.58h8.246v62.524h-8.246zM99.172 171.93l11.088-.021-21.994 21.623 24.556 34.223-10.962-.14-19.915-27.867-9.023 8.869v23.205H64.9l.14-63.434h7.882v29.47l26.25-25.928z"/><path d="M63.5 263v-4.697h273v4.025L63.5 263zm0-30.66v-4.704h273v4.025l-273 .679zm0-29.96v-4.704h273v4.025l-273 .679zm0-29.722v-4.704h273v4.032l-273 .672zm0-30.954V137h273v4.025l-273 .679z"/><path d="M162.55 137.007h.497l.252.007h.252l.252.007.245.007.252.007.252.007.252.014.252.007.252.014.252.007.252.014.252.014.252.014.259.014.252.014.252.021.252.014.259.021.252.021.252.014.259.021.252.021.259.028.252.021.259.028.259.021.252.028.259.028.259.028.252.028.259.028.259.028.259.035.259.028.259.035.259.035 3.808 1.442 4.025 2.471 3.178 2.261 2.541 2.065 2.541 2.471 2.121 3.087 3.178 5.971 1.484 3.087 1.057 3.71 1.057 6.174v11.739l-1.057 5.145-1.057 4.942-1.484 4.326-3.416 8.043-.399.812-2.751 5.145-2.331 3.5-2.121 3.71-3.178 3.5-2.541 2.884-2.751 2.674-2.541 2.674-2.968 2.268-3.808 2.884-5.089 3.486-14.189 5.985-9.317 2.884-7.42 1.855-5.082.819 2.485-1.736 6.923-3.206 6.65-3.521 6.02-3.941 6.517-5.348 6.664-6.552 4.2-4.648 3.087-3.367 1.274-1.974 2.933-4.83 3.661-6.902 2.751-6.069 1.575-6.377 1.19-4.613.868-6.412.35-5.551v-5.957l-.805-5.005-1.239-4.592-1.939-4.249-2.289-4.795-2.044-2.947-2.891-2.877-3.808-1.988-2.674-1.092-3.241-.378h-2.751l-1.946.168-3.178.903-3.983 1.729-3.22 1.771-2.625 2.429-2.457 2.681-1.736 3.003-1.274 2.345-.546 2.268.756.924.301-.161.805-.371.833-.329.854-.28.875-.231.903-.189.917-.133.938-.077.945-.028.952.028.938.077.917.133.903.189.875.231.854.28.833.329.805.371.777.413.742.455.721.497.679.532.644.567.616.602.567.63.532.665.49.7.441.721.399.749.357.77.301.798.252.812.196.84.147.854.084.868.028.889-.028.882-.084.868-.147.854-.196.84-.252.819-.301.791-.357.777-.399.742-.441.728-.49.693-.532.665-.567.637-.616.602-.644.567-.679.532-.721.49-.742.455-.777.413-.805.371-.833.329-.854.28-.875.231-.903.189-.917.133-.938.084-.952.028-.945-.028-.938-.084-.917-.133-.903-.189-.875-.231-.854-.28-.833-.329-.805-.371-.777-.413-.749-.455-.714-.49-.679-.532-.651-.567-.609-.602-.567-.637-.532-.665-.49-.693-.448-.728-.399-.742-.35-.777-.301-.791-.252-.819-.196-.84-.147-.854-.084-.868-.035-.882.035-.889.084-.868.147-.854.07-.301-.336.413.35-6.482 1.176-4.389.007-.021v-.014l.007-.021.007-.021.007-.014v-.021l.007-.014.007-.021.007-.021.007-.014v-.021l.007-.014.007-.021.007-.021.007-.014.007-.021.007-.014.007-.021.007-.021.007-.014.007-.021.007-.014.007-.021.007-.014.007-.021.007-.014.007-.021.007-.014.007-.021.007-.014.007-.021.014-.014.007-.021.007-.014.007-.021.007-.014.014-.021.007-.014.007-.021.007-.014 1.729-3.367 2.758-4.319 2.961-3.5 3.395-2.681 3.598-2.471 2.751-1.645 4.025-1.442.238-.035.245-.035.238-.028.238-.035.238-.028.245-.028.238-.028.238-.028.245-.028.238-.028.245-.021.238-.028.245-.021.238-.028.245-.021.245-.021.245-.014.238-.021.245-.021.245-.014.245-.021.245-.014.245-.014.245-.014.245-.014.245-.014.245-.007.245-.014.245-.007.245-.014.245-.007.252-.007.245-.007.245-.007h.245l.252-.007h.497l.245-.007h.497l.252.007zm54.047 39.074l.882.245.854.336.798.413.756.497.693.567.63.63.567.693.497.756.413.798.336.847.245.889.147.924.056.952-.056.952-.147.924-.245.889-.336.847-.413.805-.497.749-.567.7-.63.63-.693.567-.756.497-.798.413-.854.336-.882.238-.924.154-.952.049-.959-.049-.917-.154-.889-.238-.854-.336-.798-.413-.756-.497-.693-.567-.63-.63-.567-.7-.497-.749-.413-.805-.336-.847-.245-.889-.147-.924-.049-.952.049-.952.147-.924.245-.889.336-.847.413-.798.497-.756.567-.693.63-.63.693-.567.756-.497.798-.413.854-.336.889-.245.917-.147.959-.056.952.056.924.147zm0-30.73l.882.238.854.336.798.413.756.497.693.567.63.63.567.7.497.749.413.805.336.847.245.889.147.924.056.952-.056.952-.147.924-.245.889-.336.847-.413.798-.497.756-.567.693-.63.63-.693.567-.756.497-.798.413-.854.336-.882.245-.924.147-.952.056-.959-.056-.917-.147-.889-.245-.854-.336-.798-.413-.756-.497-.693-.567-.63-.63-.567-.693-.497-.756-.413-.798-.336-.847-.245-.889-.147-.924-.049-.952.049-.952.147-.924.245-.889.336-.847.413-.805.497-.749.567-.7.63-.63.693-.567.756-.497.798-.413.854-.336.889-.238.917-.154.959-.049.952.049.924.154z"/></svg>