<svg xmlns="http://www.w3.org/2000/svg" width="400" height="400"><path d="M269.42 155.34v77.53H310v11.09h-53v-88.62h12.42zM379.22 243.96v-2l-1.28.85-45.52-66.51-.68 68.66H320l.84-89.32h11.78l-.04 4.23 1.9-1.26 44.74 65.43v-69.4H391v89.32h-11.78zM55.96 159.9l15.84-.03-31.42 30.89 35.08 48.89-15.66-.2-28.45-39.81-12.89 12.67v33.15H7l.2-90.62h11.26v42.1l37.5-37.04z"/><path d="M5 290v-6.71h390v5.75L5 290zm0-43.8v-6.72h390v5.75L5 246.2zm0-42.8v-6.72h390v5.75L5 203.4zm0-42.46v-6.72h390v5.76l-390 .96zm0-44.22V110h390v5.75l-390 .97z"/><path d="M146.5 110.01h.71l.36.01h.36l.36.01.35.01.36.01.36.01.36.02.36.01.36.02.36.01.36.02.36.02.36.02.37.02.36.02.36.03.36.02.37.03.36.03.36.02.37.03.36.03.37.04.36.03.37.04.37.03.36.04.37.04.37.04.36.04.37.04.37.04.37.05.37.04.37.05.37.05 5.44 2.06 5.75 3.53 4.54 3.23 3.63 2.95 3.63 3.53 3.03 4.41 4.54 8.53 2.12 4.41 1.51 5.3 1.51 8.82v16.77l-1.51 7.35-1.51 7.06-2.12 6.18-4.88 11.49-.57 1.16-3.93 7.35-3.33 5-3.03 5.3-4.54 5-3.63 4.12-3.93 3.82-3.63 3.82-4.24 3.24-5.44 4.12-7.27 4.98-20.27 8.55-13.31 4.12-10.6 2.65L91 271l3.55-2.48 9.89-4.58 9.5-5.03 8.6-5.63 9.31-7.64 9.52-9.36 6-6.64 4.41-4.81 1.82-2.82 4.19-6.9 5.23-9.86 3.93-8.67 2.25-9.11 1.7-6.59 1.24-9.16.5-7.93v-8.51l-1.15-7.15-1.77-6.56-2.77-6.07-3.27-6.85-2.92-4.21-4.13-4.11-5.44-2.84-3.82-1.56-4.63-.54h-3.93l-2.78.24-4.54 1.29-5.69 2.47-4.6 2.53-3.75 3.47-3.51 3.83-2.48 4.29-1.82 3.35-.78 3.24 1.08 1.32.43-.23 1.15-.53 1.19-.47 1.22-.4 1.25-.33 1.29-.27 1.31-.19 1.34-.11 1.35-.04 1.36.04 1.34.11 1.31.19 1.29.27 1.25.33 1.22.4 1.19.47 1.15.53 1.11.59 1.06.65 1.03.71.97.76.92.81.88.86.81.9.76.95.7 1 .63 1.03.57 1.07.51 1.1.43 1.14.36 1.16.28 1.2.21 1.22.12 1.24.04 1.27-.04 1.26-.12 1.24-.21 1.22-.28 1.2-.36 1.17-.43 1.13-.51 1.11-.57 1.06-.63 1.04-.7.99-.76.95-.81.91-.88.86-.92.81-.97.76-1.03.7-1.06.65-1.11.59-1.15.53-1.19.47-1.22.4-1.25.33-1.29.27-1.31.19-1.34.12-1.36.04-1.35-.04-1.34-.12-1.31-.19-1.29-.27-1.25-.33-1.22-.4-1.19-.47-1.15-.53-1.11-.59-1.07-.65-1.02-.7-.97-.76-.93-.81-.87-.86-.81-.91-.76-.95-.7-.99-.64-1.04-.57-1.06-.5-1.11-.43-1.13-.36-1.17-.28-1.2-.21-1.22-.12-1.24-.05-1.26.05-1.27.12-1.24.21-1.22.1-.43-.48.59.5-9.26 1.68-6.27.01-.03v-.02l.01-.03.01-.03.01-.02v-.03l.01-.02.01-.03.01-.03.01-.02v-.03l.01-.02.01-.03.01-.03.01-.02.01-.03.01-.02.01-.03.01-.03.01-.02.01-.03.01-.02.01-.03.01-.02.01-.03.01-.02.01-.03.01-.02.01-.03.01-.02.01-.03.02-.02.01-.03.01-.02.01-.03.01-.02.02-.03.01-.02.01-.03.01-.02 2.47-4.81 3.94-6.17 4.23-5 4.85-3.83 5.14-3.53 3.93-2.35 5.75-2.06.34-.05.35-.05.34-.04.34-.05.34-.04.35-.04.34-.04.34-.04.35-.04.34-.04.35-.03.34-.04.35-.03.34-.04.35-.03.35-.03.35-.02.34-.03.35-.03.35-.02.35-.03.35-.02.35-.02.35-.02.35-.02.35-.02.35-.01.35-.02.35-.01.35-.02.35-.01.36-.01.35-.01.35-.01h.35l.36-.01h.71l.35-.01h.71l.36.01zm77.21 55.82l1.26.35 1.22.48 1.14.59 1.08.71.99.81.9.9.81.99.71 1.08.59 1.14.48 1.21.35 1.27.21 1.32.08 1.36-.08 1.36-.21 1.32-.35 1.27-.48 1.21-.59 1.15-.71 1.07-.81 1-.9.9-.99.81-1.08.71-1.14.59-1.22.48-1.26.34-1.32.22-1.36.07-1.37-.07-1.31-.22-1.27-.34-1.22-.48-1.14-.59-1.08-.71-.99-.81-.9-.9-.81-1-.71-1.07-.59-1.15-.48-1.21-.35-1.27-.21-1.32-.07-1.36.07-1.36.21-1.32.35-1.27.48-1.21.59-1.14.71-1.08.81-.99.9-.9.99-.81 1.08-.71 1.14-.59 1.22-.48 1.27-.35 1.31-.21 1.37-.08 1.36.08 1.32.21zm0-43.9l1.26.34 1.22.48 1.14.59 1.08.71.99.81.9.9.81 1 .71 1.07.59 1.15.48 1.21.35 1.27.21 1.32.08 1.36-.08 1.36-.21 1.32-.35 1.27-.48 1.21-.59 1.14-.71 1.08-.81.99-.9.9-.99.81-1.08.71-1.14.59-1.22.48-1.26.35-1.32.21-1.36.08-1.37-.08-1.31-.21-1.27-.35-1.22-.48-1.14-.59-1.08-.71-.99-.81-.9-.9-.81-.99-.71-1.08-.59-1.14-.48-1.21-.35-1.27-.21-1.32-.07-1.36.07-1.36.21-1.32.35-1.27.48-1.21.59-1.15.71-1.07.81-1 .9-.9.99-.81 1.08-.71 1.14-.59 1.22-.48 1.27-.34 1.31-.22 1.37-.07 1.36.07 1.32.22z"/></svg>